<?xml version="1.0" encoding="UTF-8" standalone="no"?>
<!-- Created with Inkscape (http://www.inkscape.org/) -->

<svg
   xmlns:dc="http://purl.org/dc/elements/1.1/"
   xmlns:cc="http://creativecommons.org/ns#"
   xmlns:rdf="http://www.w3.org/1999/02/22-rdf-syntax-ns#"
   xmlns:svg="http://www.w3.org/2000/svg"
   xmlns="http://www.w3.org/2000/svg"
   xmlns:sodipodi="http://sodipodi.sourceforge.net/DTD/sodipodi-0.dtd"
   xmlns:inkscape="http://www.inkscape.org/namespaces/inkscape"
   width="744.09448819"
   height="1052.3622047"
   id="svg2"
   version="1.1"
   inkscape:version="0.48.0 r9654"
   sodipodi:docname="autko.svg">
  <defs
     id="defs4" />
  <sodipodi:namedview
     id="base"
     pagecolor="#ffffff"
     bordercolor="#666666"
     borderopacity="1.0"
     inkscape:pageopacity="0.0"
     inkscape:pageshadow="2"
     inkscape:zoom="0.51714517"
     inkscape:cx="500.75006"
     inkscape:cy="694.77501"
     inkscape:document-units="px"
     inkscape:current-layer="layer1"
     showgrid="false"
     inkscape:window-width="1280"
     inkscape:window-height="752"
     inkscape:window-x="0"
     inkscape:window-y="0"
     inkscape:window-maximized="0"
     showguides="true"
     inkscape:guide-bbox="true" />
  <metadata
     id="metadata7">
    <rdf:RDF>
      <cc:Work
         rdf:about="">
        <dc:format>image/svg+xml</dc:format>
        <dc:type
           rdf:resource="http://purl.org/dc/dcmitype/StillImage" />
        <dc:title></dc:title>
      </cc:Work>
    </rdf:RDF>
  </metadata>
  <g
     inkscape:label="Layer 1"
     inkscape:groupmode="layer"
     id="layer1">
    <path
       style="fill:#000000;stroke:#000000;stroke-width:1px;stroke-linecap:butt;stroke-linejoin:miter;stroke-opacity:1"
       d="m 315.15625,320.75 c -35.20654,0.0801 -67.39108,5.78674 -103.40625,15.53125 -30.02363,6.56008 -42.44165,-5.70405 -69.34375,-8.65625 -32.07597,-3.49771 -46.06596,36.60208 -29.6875,58.40625 79.9148,31.51355 440.36047,41.42413 267.4276,98.78713 112.98021,-25.40054 35.24594,-52.14268 -36.59884,-63.99038 153.56414,16.44474 141.06765,64.23156 -33.67251,83.422 343.04998,-35.8737 34.68473,-100.56787 -63.82344,-106.74654 63.36301,13.91029 290.96806,24.42584 215.92303,98.24062 95.58774,-65.05165 -114.07221,-90.72447 -181.15623,-98.8414 100.27191,9.6674 222.70582,29.43724 211.61914,71.26841 8.02411,-32.03253 -69.02897,-58.54405 -146.23272,-75.93924 75.8225,14.5841 126.53855,29.29022 151.33391,56.6741 -16.22594,-29.76347 -72.76893,-39.20473 -90.61503,-46.68049 -14.04844,-9.32087 102.55155,30.09805 17.77399,-0.50202 33.01109,5.58996 58.36825,-1.57807 81.8961,-4.28594 -28.59613,2.89866 -59.38419,1.45321 -90.375,-0.4375 28.77977,-0.82481 58.97723,-1.38983 74.84375,-4.5625 -23.6103,2.52556 -49.26717,0.90701 -75.28125,-1.375 19.01353,-0.42647 40.85505,-0.30606 54.3125,-1.84375 -8.83805,-0.31397 -20.27503,1.16567 -32.40625,-1.34375 l 15.0625,-2.75 2.28125,-5.9375 c 34.9533,-12.67322 79.75599,-46.69922 23.71875,-36.0625 -16.7432,1.44364 -6.84375,-5 -6.84375,-5 10.78523,-6.88765 31.68524,-24.54446 33.77769,-28.94533 -27.40092,18.47048 -62.80244,19.15059 -112.92376,11.66069 37.51303,8.81571 42.6369,9.98942 71.39607,12.09714 -45.69984,3.57872 -93.68948,-10.62944 -133.71875,-11.875 -5.17402,-0.22352 -10.25174,-0.32394 -15.28125,-0.3125 z M 148.96875,333 C 164.45661,333 177,345.92962 177,361.84375 c 0,15.91413 -12.54339,28.8125 -28.03125,28.8125 -15.48786,0 -28.0625,-12.89837 -28.0625,-28.8125 0,-15.91413 12.57464,-28.84375 28.0625,-28.84375 z m 207.09375,0 c 15.91413,0 28.8125,12.32758 28.8125,27.53125 0,15.20367 -12.89837,27.53125 -28.8125,27.53125 -15.91413,0 -28.8125,-12.32758 -28.8125,-27.53125 C 327.25,345.32758 340.14837,333 356.0625,333 z"
       id="path3050"
       inkscape:connector-curvature="0"
       sodipodi:nodetypes="sccccccccccccccccccccccccccccsssssssssss" />
    <path
       style="fill:#000000;stroke:#000000;stroke-width:1px;stroke-linecap:butt;stroke-linejoin:miter;stroke-opacity:1"
       d="m 177.12244,331.04909 c 21.98018,-13.69052 58.16658,-28.18451 88.16048,-30.85617 60.47812,-4.83814 85.75611,10.95327 117.01301,20.83794 -38.92906,-6.46241 -76.08464,-11.22016 -114.2079,-3.60657 -61.13145,15.59899 -69.50484,16.25369 -90.96559,13.6248 z"
       id="path3052"
       inkscape:connector-curvature="0"
       sodipodi:nodetypes="ccccc" />
    <path
       style="fill:#000000;stroke:#000000;stroke-width:1px;stroke-linecap:butt;stroke-linejoin:miter;stroke-opacity:1"
       d="m 208.37934,310.61189 c 82.36031,-36.03659 141.34161,-13.24595 217.19538,1.43237 29.7635,5.23435 56.59397,-0.88599 74.91654,-10.53406 -6.31766,8.22235 -45.66734,22.13136 -79.22934,14.2913 -77.37615,-16.67723 -150.38351,-36.25505 -212.88258,-5.18961 z"
       id="path3054"
       inkscape:connector-curvature="0"
       sodipodi:nodetypes="ccccc" />
    <path
       sodipodi:type="arc"
       style="fill:#ffffff;fill-opacity:0.38823529000000001;stroke-width:2.29999995000000013;stroke-linecap:round;stroke-linejoin:round;stroke-miterlimit:4;stroke-dasharray:none;stroke-dashoffset:0"
       id="path3081"
       sodipodi:cx="149.22093"
       sodipodi:cy="361.82944"
       sodipodi:rx="28.300524"
       sodipodi:ry="28.815077"
       d="m 177.52146,361.82944 a 28.300524,28.815077 0 1 1 -56.60105,0 28.300524,28.815077 0 1 1 56.60105,0 z" />
    <path
       sodipodi:type="arc"
       style="fill:#00ff00;fill-opacity:0;stroke:#000000;stroke-width:1;stroke-linecap:round;stroke-linejoin:round;stroke-miterlimit:4;stroke-opacity:1;stroke-dasharray:none;stroke-dashoffset:0"
       id="path3859"
       sodipodi:cx="355.55746"
       sodipodi:cy="361.31488"
       sodipodi:rx="28.300522"
       sodipodi:ry="28.300522"
       d="m 383.85799,361.31488 a 28.300522,28.300522 0 1 1 -56.60105,0 28.300522,28.300522 0 1 1 56.60105,0 z" />
    <path
       sodipodi:type="arc"
       style="fill:#000000;fill-opacity:1;stroke:#000000;stroke-width:1;stroke-linecap:round;stroke-linejoin:round;stroke-miterlimit:4;stroke-opacity:1;stroke-dasharray:none;stroke-dashoffset:0"
       id="path3861"
       sodipodi:cx="151.53644"
       sodipodi:cy="361.57217"
       sodipodi:rx="15.179372"
       sodipodi:ry="14.15026"
       d="m 166.71581,361.57217 a 15.179372,14.15026 0 1 1 -30.35874,0 15.179372,14.15026 0 1 1 30.35874,0 z" />
    <path
       sodipodi:type="arc"
       style="fill:#000000;fill-opacity:1;stroke:#000000;stroke-width:1;stroke-linecap:round;stroke-linejoin:round;stroke-miterlimit:4;stroke-opacity:1;stroke-dasharray:none;stroke-dashoffset:0"
       id="path3863"
       sodipodi:cx="351.18375"
       sodipodi:cy="361.57217"
       sodipodi:rx="14.664815"
       sodipodi:ry="14.15026"
       d="m 365.84856,361.57217 a 14.664815,14.15026 0 1 1 -29.32963,0 14.664815,14.15026 0 1 1 29.32963,0 z" />
    <g
       transform="matrix(1.1890186,0,0,1.0440271,-7.3629012,-61.833486)"
       style="font-size:85.85359192px;font-style:normal;font-weight:normal;line-height:125%;letter-spacing:0px;word-spacing:0px;fill:#000000;fill-opacity:1;stroke:none;font-family:Sans"
       id="text3867">
      <path
         d="m 154.53115,542.24426 -17.9434,0 0,-27.47315 -19.2312,0 0,27.47315 -18.029255,0 0,-103.08656 18.029255,5.88891 0,58.22012 19.2312,0 0,-50.56454 17.9434,3.53335 0,86.00872"
         style="font-variant:normal;font-weight:bold;font-stretch:normal;font-family:Stone Sans ITC TT;-inkscape-font-specification:Stone Sans ITC TT Bold"
         id="path3872"
         inkscape:connector-curvature="0"
         sodipodi:nodetypes="ccccccccccccc" />
      <path
         d="m 208.42441,542.24426 -40.17948,0 0,-82.47537 36.57363,5.88891 0,13.1852 -18.54438,-3.53334 0,29.76 18.11511,0 0,11.50438 -18.11511,0 0,14.25169 22.15023,0 0,11.41853"
         style="font-variant:normal;font-weight:bold;font-stretch:normal;font-family:Stone Sans ITC TT;-inkscape-font-specification:Stone Sans ITC TT Bold"
         id="path3874"
         inkscape:connector-curvature="0"
         sodipodi:nodetypes="ccccccccccccc" />
      <path
         d="m 285.24996,530.45913 -17.17072,2.20971 0,-20.7309 c -5e-5,-2.23216 0.11442,-6.21004 0.34342,-11.93364 -0.91583,3.54865 -2.1464,7.52653 -3.69171,11.93364 l -10.47414,30.30632 -7.64097,0 -10.7317,-30.30632 c -1.14473,-3.2624 -2.3753,-7.2689 -3.6917,-12.0195 0.22892,4.17825 0.34339,8.18475 0.34341,12.0195 l 0,30.30632 -14.16584,0 0.96086,-75.40868 20.41669,4.12224 12.62047,48.02012 12.19121,-44.19324 20.69072,3.53335 0,49.93136"
         style="font-variant:normal;font-weight:bold;font-stretch:normal;font-family:Stone Sans ITC TT;-inkscape-font-specification:Stone Sans ITC TT Bold"
         id="path3876"
         inkscape:connector-curvature="0"
         sodipodi:nodetypes="cccccccccscccccccc" />
      <path
         d="m 317.06675,526.0397 -18.02925,3.68286 0,-47.57581 18.02925,2.94446 0,36.52907"
         style="font-variant:normal;font-weight:bold;font-stretch:normal;font-family:Stone Sans ITC TT;-inkscape-font-specification:Stone Sans ITC TT Bold"
         id="path3878"
         inkscape:connector-curvature="0"
         sodipodi:nodetypes="ccccc" />
    </g>
    <path
       style="font-size:medium;font-style:normal;font-variant:normal;font-weight:normal;font-stretch:normal;text-indent:0;text-align:start;text-decoration:none;line-height:normal;letter-spacing:normal;word-spacing:normal;text-transform:none;direction:ltr;block-progression:tb;writing-mode:lr-tb;text-anchor:start;baseline-shift:baseline;color:#000000;fill:#000000;fill-opacity:1;stroke:none;stroke-width:2.20000005;marker:none;visibility:visible;display:inline;overflow:visible;enable-background:accumulate;font-family:Sans;-inkscape-font-specification:Sans"
       d="m 93.125385,270.13708 c 3.264788,44.78405 -3.681147,269.40148 -3.681147,376.27177 137.361082,-2.92842 284.539012,-10.47024 420.947272,-15.38632 -0.59725,-109.47431 6.4219,-242.04199 10.93154,-383.33465 -0.003,-0.57178 -0.52197,-1.09045 -1.09375,-1.09375 z m -26.027971,-45.30967 476.744786,0 1.93369,440.34056 -476.744783,0 z"
       id="rect3895"
       inkscape:connector-curvature="0"
       sodipodi:nodetypes="ccccccccccc" />
    <text
       xml:space="preserve"
       style="font-size:107.13680267px;font-style:normal;font-weight:normal;line-height:125%;letter-spacing:0px;word-spacing:0px;fill:#000000;fill-opacity:1;stroke:none;font-family:Sans"
       x="75.70591"
       y="621.6424"
       id="text3909"
       sodipodi:linespacing="125%"
       transform="matrix(0.98187862,-0.02682057,0.04163136,1.0173186,0,0)"><tspan
         sodipodi:role="line"
         id="tspan3911"
         x="75.70591"
         y="621.6424"
         style="font-size:149.99153137px;font-style:normal;font-variant:normal;font-weight:bold;font-stretch:normal;font-family:Stone Sans ITC TT;-inkscape-font-specification:Stone Sans ITC TT Bold">CARS</tspan></text>
  </g>
</svg>
